<svg width="237" height="91" viewBox="0 0 237 91" fill="none" xmlns="http://www.w3.org/2000/svg">
<path d="M0 6C0 2.6863 2.68629 0 6 0H84.7368C88.0505 0 90.7368 2.68629 90.7368 6V84.7368C90.7368 88.0505 88.0505 90.7368 84.7368 90.7368H6C2.6863 90.7368 0 88.0505 0 84.7368V6Z" fill="#F7DF1E"/>
<path d="M61.1289 71.0941C62.9619 74.0869 65.3467 76.2868 69.5644 76.2868C73.1077 76.2868 75.3711 74.5159 75.3711 72.0691C75.3711 69.1368 73.0456 68.0983 69.1456 66.3924L67.0078 65.4752C60.8371 62.8463 56.7378 59.5529 56.7378 52.5907C56.7378 46.1774 61.6243 41.2952 69.2611 41.2952C74.698 41.2952 78.6067 43.1874 81.4233 48.1418L74.7644 52.4174C73.2983 49.7885 71.7167 48.7528 69.2611 48.7528C66.7564 48.7528 65.169 50.3417 65.169 52.4174C65.169 54.9827 66.7579 56.0213 70.4268 57.6102L72.5646 58.5259C79.8301 61.6416 83.9323 64.8179 83.9323 71.9593C83.9323 79.6582 77.8844 83.8759 69.7623 83.8759C61.8208 83.8759 56.6901 80.0915 54.1797 75.1313L61.1289 71.0941ZM30.9212 71.8351C32.2646 74.2184 33.4866 76.2334 36.4246 76.2334C39.234 76.2334 41.0063 75.1342 41.0063 70.8601V41.7834H49.5574V70.9756C49.5574 79.8301 44.3661 83.8601 36.7886 83.8601C29.9419 83.8601 25.9769 80.3168 23.9604 76.0492L30.9212 71.8351Z" fill="black"/>
<path d="M116.596 58.1917V36.5083H120.275V58.1917H116.596ZM107.594 49.1898V45.5102H129.277V49.1898H107.594Z" fill="black"/>
<rect x="145.891" width="90.7368" height="90.7368" rx="6" fill="white"/>
<path d="M208.232 20.6105L197.095 37.7081C196.325 38.8726 197.806 40.2819 198.872 39.3015L209.832 29.4351C210.128 29.1899 210.542 29.3738 210.542 29.8028V60.6276C210.542 61.0565 210.009 61.2404 209.772 60.9341L176.598 19.8751C175.532 18.5269 173.992 17.7915 172.274 17.7915H171.089C168.009 17.7915 165.461 20.4266 165.461 23.6746V67.0622C165.461 70.3102 168.009 72.9453 171.148 72.9453C173.103 72.9453 174.94 71.9034 176.006 70.1264L187.143 53.0287C187.913 51.8642 186.432 50.4549 185.366 51.4353L174.407 61.2404C174.11 61.4856 173.696 61.3018 173.696 60.8727V30.1092C173.696 29.6802 174.229 29.4964 174.466 29.8028L207.64 70.8617C208.706 72.2099 210.306 72.9453 211.964 72.9453H213.149C216.289 72.9453 218.836 70.3102 218.836 67.0622V23.6746C218.777 20.4266 216.23 17.7915 213.09 17.7915C211.135 17.7915 209.298 18.8333 208.232 20.6105Z" fill="#181818"/>
</svg>
